<svg width="181.973022" height="174.700928" viewBox="0 0 181.973 174.701" fill="none" xmlns="http://www.w3.org/2000/svg" xmlns:xlink="http://www.w3.org/1999/xlink">
	<desc>
			Created with Pixso.
	</desc>
	<defs>
		<filter id="filter_26_2511_dd" x="0.000000" y="0.000000" width="181.973022" height="174.700928" filterUnits="userSpaceOnUse" color-interpolation-filters="sRGB">
			<feFlood flood-opacity="0" result="BackgroundImageFix"/>
			<feColorMatrix in="SourceAlpha" type="matrix" values="0 0 0 0 0 0 0 0 0 0 0 0 0 0 0 0 0 0 127 0" result="hardAlpha"/>
			<feOffset dx="0" dy="4"/>
			<feGaussianBlur stdDeviation="3.33333"/>
			<feComposite in2="hardAlpha" operator="out" k2="-1" k3="1"/>
			<feColorMatrix type="matrix" values="0 0 0 0 0.41569 0 0 0 0 0.38824 0 0 0 0 0.46275 0 0 0 0.1 0"/>
			<feBlend mode="normal" in2="BackgroundImageFix" result="effect_dropShadow_1"/>
			<feBlend mode="normal" in="SourceGraphic" in2="effect_dropShadow_1" result="shape"/>
		</filter>
		<clipPath id="clip26_2513">
			<rect id="Figma" rx="0.000000" width="35.000000" height="35.000000" transform="translate(35.326599 38.572754) rotate(-4.999999)" fill="white" fill-opacity="0"/>
		</clipPath>
		<clipPath id="clip26_2516">
			<rect id="Wireframing" rx="0.000000" width="35.000000" height="35.000000" transform="translate(103.067810 32.646240) rotate(-4.999999)" fill="white" fill-opacity="0"/>
		</clipPath>
		<clipPath id="clip26_2519">
			<rect id="Wireframing" rx="0.000000" width="35.000000" height="35.000000" transform="translate(40.904541 102.329346) rotate(-4.999999)" fill="white" fill-opacity="0"/>
		</clipPath>
		<clipPath id="clip26_2522">
			<rect id="Figma" rx="0.000000" width="35.000000" height="35.000000" transform="translate(108.645813 96.402588) rotate(-4.999999)" fill="white" fill-opacity="0"/>
		</clipPath>
	</defs>
	<g filter="url(#filter_26_2511_dd)">
		<rect id="Frame 2087326712" rx="11.500000" width="151.000000" height="143.000000" transform="translate(9.500488 18.748291) rotate(-4.999999)" fill="#FFFFFF" fill-opacity="1.000000"/>
		<rect id="Skill button" rx="7.500000" width="59.000000" height="55.000000" transform="translate(22.500671 29.656738) rotate(-4.999999)" fill="#F4F4F4" fill-opacity="1.000000"/>
		<rect id="Figma" rx="0.000000" width="35.000000" height="35.000000" transform="translate(35.326599 38.572754) rotate(-4.999999)" fill="#FFFFFF" fill-opacity="0"/>
		<g clip-path="url(#clip26_2513)">
			<path id="Vector" d="M54.36 54.43C54.08 51.13 56.52 48.22 59.82 47.93C63.12 47.64 66.03 50.08 66.32 53.38C66.61 56.68 64.17 59.59 60.86 59.88C57.56 60.17 54.65 57.73 54.36 54.43Z" fill="#00BCFF" fill-opacity="1.000000" fill-rule="nonzero"/>
			<path id="Vector" d="M43.46 67.43C43.17 64.13 45.61 61.22 48.91 60.93L51.95 58.97L54.89 60.4L55.41 66.38C55.7 69.68 53.26 72.59 49.96 72.88C46.65 73.17 43.74 70.73 43.46 67.43Z" fill="#00CF7F" fill-opacity="1.000000" fill-rule="nonzero"/>
			<path id="Vector" d="M52.8 36.5L50.04 42.43L53.84 48.45L59.73 47.93C63.04 47.65 65.48 44.74 65.19 41.43C64.9 38.13 61.99 35.69 58.69 35.98L52.8 36.5Z" fill="#FF7361" fill-opacity="1.000000" fill-rule="nonzero"/>
			<path id="Vector" d="M41.28 43.53C41.57 46.83 44.48 49.27 47.78 48.98L51.06 49.93L53.84 48.45L52.79 36.5L46.73 37.03C43.43 37.31 40.99 40.22 41.28 43.53Z" fill="#FF4D12" fill-opacity="1.000000" fill-rule="nonzero"/>
			<path id="Vector" d="M42.41 55.47C42.7 58.77 45.61 61.22 48.91 60.93L54.89 60.4L53.84 48.45L47.86 48.97C44.56 49.26 42.12 52.17 42.41 55.47Z" fill="#B659FF" fill-opacity="1.000000" fill-rule="nonzero"/>
		</g>
		<rect id="Skill button" rx="7.500000" width="59.000000" height="55.000000" transform="translate(90.241943 23.730225) rotate(-4.999999)" fill="#F4F4F4" fill-opacity="1.000000"/>
		<rect id="Wireframing" rx="0.000000" width="35.000000" height="35.000000" transform="translate(103.067810 32.646240) rotate(-4.999999)" fill="#FFFFFF" fill-opacity="0"/>
		<g clip-path="url(#clip26_2516)">
			<path id="Vector" d="M132.74 34.25L132.43 30.77C132.42 30.58 132.48 30.4 132.59 30.26C132.71 30.11 132.88 30.03 133.07 30.01C133.25 29.99 133.44 30.05 133.58 30.17C133.72 30.29 133.81 30.46 133.83 30.64L134.13 34.12L137.61 33.82C137.79 33.8 137.98 33.86 138.12 33.98C138.26 34.1 138.35 34.27 138.37 34.45C138.38 34.64 138.32 34.82 138.21 34.96C138.09 35.11 137.92 35.2 137.73 35.21L134.25 35.52L136.32 59.18L139.8 58.87C139.99 58.86 140.17 58.92 140.31 59.03C140.45 59.15 140.54 59.32 140.56 59.51C140.57 59.69 140.52 59.88 140.4 60.02C140.28 60.16 140.11 60.25 139.92 60.27L136.44 60.57L136.75 64.05C136.78 64.43 136.5 64.77 136.11 64.81C135.73 64.84 135.39 64.56 135.36 64.17L135.05 60.69L111.39 62.76L111.69 66.24C111.73 66.63 111.44 66.97 111.06 67C110.67 67.03 110.34 66.75 110.3 66.36L110 62.88L106.52 63.19C106.33 63.2 106.15 63.15 106.01 63.03C105.87 62.91 105.78 62.74 105.76 62.55C105.74 62.37 105.8 62.19 105.92 62.04C106.04 61.9 106.21 61.81 106.4 61.8L109.88 61.49L107.81 37.83L104.33 38.13C104.14 38.15 103.96 38.09 103.82 37.97C103.67 37.85 103.58 37.68 103.57 37.5C103.55 37.31 103.61 37.13 103.73 36.99C103.85 36.85 104.02 36.76 104.2 36.74L107.68 36.44L107.38 32.96C107.36 32.77 107.42 32.59 107.54 32.45C107.66 32.31 107.83 32.22 108.01 32.2C108.2 32.18 108.38 32.24 108.52 32.36C108.67 32.48 108.75 32.65 108.77 32.84L109.08 36.32L132.74 34.25ZM109.2 37.71L111.27 61.37L134.93 59.3L132.86 35.64L109.2 37.71ZM131.54 43.05L132.35 52.31C132.37 52.57 132.32 52.83 132.21 53.06C132.09 53.29 131.91 53.48 131.69 53.62L123.64 58.56L122.76 48.45L131.54 43.05ZM121.37 48.55L122.25 58.68L113.47 55.21C113.23 55.12 113.02 54.96 112.87 54.75C112.71 54.54 112.62 54.29 112.59 54.04L111.78 44.77L121.37 48.55ZM112.31 43.48C112.35 43.45 112.39 43.42 112.44 43.39L120.55 38.4C120.74 38.29 120.95 38.22 121.16 38.2C121.38 38.18 121.6 38.21 121.8 38.29L130.65 41.8C130.71 41.82 130.76 41.84 130.81 41.87L121.98 47.3L112.31 43.48Z" fill="#303030" fill-opacity="1.000000" fill-rule="evenodd"/>
		</g>
		<rect id="Skill button" rx="7.500000" width="59.000000" height="55.000000" transform="translate(28.078674 93.413330) rotate(-4.999999)" fill="#F4F4F4" fill-opacity="1.000000"/>
		<rect id="Wireframing" rx="0.000000" width="35.000000" height="35.000000" transform="translate(40.904541 102.329346) rotate(-4.999999)" fill="#FFFFFF" fill-opacity="0"/>
		<g clip-path="url(#clip26_2519)">
			<path id="Vector" d="M70.57 103.93L70.27 100.45C70.25 100.26 70.31 100.08 70.43 99.94C70.55 99.8 70.72 99.71 70.9 99.69C71.09 99.68 71.27 99.73 71.41 99.85C71.56 99.97 71.65 100.14 71.66 100.33L71.97 103.81L75.45 103.5C75.63 103.49 75.81 103.54 75.96 103.66C76.1 103.78 76.19 103.95 76.2 104.14C76.22 104.32 76.16 104.51 76.04 104.65C75.92 104.79 75.75 104.88 75.57 104.89L72.09 105.2L74.16 128.86L77.64 128.56C77.82 128.54 78.01 128.6 78.15 128.72C78.29 128.84 78.38 129.01 78.39 129.19C78.41 129.38 78.35 129.56 78.23 129.7C78.11 129.84 77.94 129.93 77.76 129.95L74.28 130.25L74.58 133.73C74.62 134.12 74.33 134.46 73.95 134.49C73.57 134.52 73.23 134.24 73.19 133.86L72.89 130.38L49.23 132.45L49.53 135.92C49.56 136.31 49.28 136.65 48.89 136.68C48.51 136.72 48.17 136.43 48.14 136.05L47.83 132.57L44.35 132.87C44.17 132.89 43.99 132.83 43.84 132.71C43.7 132.59 43.61 132.42 43.6 132.24C43.58 132.05 43.64 131.87 43.76 131.73C43.88 131.58 44.05 131.5 44.23 131.48L47.71 131.17L45.64 107.51L42.16 107.82C41.98 107.83 41.79 107.78 41.65 107.66C41.51 107.54 41.42 107.37 41.41 107.18C41.39 107 41.45 106.81 41.57 106.67C41.68 106.53 41.86 106.44 42.04 106.43L45.52 106.12L45.22 102.64C45.2 102.46 45.26 102.27 45.38 102.13C45.5 101.99 45.67 101.9 45.85 101.88C46.04 101.87 46.22 101.93 46.36 102.05C46.5 102.16 46.59 102.33 46.61 102.52L46.91 106L70.57 103.93ZM47.03 107.39L49.1 131.05L72.77 128.98L70.7 105.32L47.03 107.39ZM69.38 112.74L70.19 121.99C70.21 122.25 70.16 122.51 70.04 122.74C69.93 122.97 69.75 123.17 69.53 123.3L61.48 128.24L60.6 118.13L69.38 112.74ZM59.2 118.24L60.09 128.37L51.31 124.9C51.07 124.8 50.86 124.64 50.7 124.43C50.55 124.22 50.45 123.98 50.43 123.72L49.62 114.45L59.2 118.24ZM50.14 113.16C50.19 113.13 50.23 113.1 50.27 113.07L58.39 108.09C58.57 107.97 58.78 107.9 59 107.89C59.21 107.87 59.43 107.9 59.63 107.98L68.49 111.48C68.55 111.5 68.6 111.53 68.65 111.55L59.81 116.98L50.14 113.16Z" fill="#303030" fill-opacity="1.000000" fill-rule="evenodd"/>
		</g>
		<rect id="Skill button" rx="7.500000" width="59.000000" height="55.000000" transform="translate(95.819885 87.486572) rotate(-4.999999)" fill="#F4F4F4" fill-opacity="1.000000"/>
		<rect id="Figma" rx="0.000000" width="35.000000" height="35.000000" transform="translate(108.645813 96.402588) rotate(-4.999999)" fill="#FFFFFF" fill-opacity="0"/>
		<g clip-path="url(#clip26_2522)">
			<path id="Vector" d="M127.68 112.26C127.39 108.96 129.84 106.05 133.14 105.76C136.44 105.47 139.35 107.91 139.64 111.21C139.93 114.51 137.48 117.42 134.18 117.71C130.88 118 127.97 115.56 127.68 112.26Z" fill="#00BCFF" fill-opacity="1.000000" fill-rule="nonzero"/>
			<path id="Vector" d="M116.78 125.26C116.49 121.96 118.93 119.05 122.23 118.76L125.27 116.8L128.21 118.23L128.73 124.21C129.02 127.51 126.58 130.42 123.28 130.71C119.97 131 117.06 128.56 116.78 125.26Z" fill="#00CF7F" fill-opacity="1.000000" fill-rule="nonzero"/>
			<path id="Vector" d="M126.11 94.33L123.36 100.26L127.16 106.28L133.05 105.76C136.36 105.48 138.8 102.57 138.51 99.26C138.22 95.96 135.31 93.52 132.01 93.81L126.11 94.33Z" fill="#FF7361" fill-opacity="1.000000" fill-rule="nonzero"/>
			<path id="Vector" d="M114.6 101.36C114.89 104.66 117.8 107.1 121.1 106.81L124.38 107.76L127.16 106.28L126.11 94.33L120.05 94.86C116.75 95.14 114.31 98.05 114.6 101.36Z" fill="#FF4D12" fill-opacity="1.000000" fill-rule="nonzero"/>
			<path id="Vector" d="M115.73 113.3C116.02 116.6 118.93 119.05 122.23 118.76L128.21 118.23L127.16 106.28L121.18 106.8C117.88 107.09 115.44 110 115.73 113.3Z" fill="#B659FF" fill-opacity="1.000000" fill-rule="nonzero"/>
		</g>
	</g>
</svg>
