<svg width="206.000000" height="101.000000" viewBox="0 0 206 101" fill="none" xmlns="http://www.w3.org/2000/svg" xmlns:xlink="http://www.w3.org/1999/xlink">
	<desc>
			Created with Pixso.
	</desc>
	<defs>
		<filter id="filter_26_2499_dd" x="0.000000" y="0.000000" width="206.000000" height="101.000000" filterUnits="userSpaceOnUse" color-interpolation-filters="sRGB">
			<feFlood flood-opacity="0" result="BackgroundImageFix"/>
			<feColorMatrix in="SourceAlpha" type="matrix" values="0 0 0 0 0 0 0 0 0 0 0 0 0 0 0 0 0 0 127 0" result="hardAlpha"/>
			<feOffset dx="0" dy="4"/>
			<feGaussianBlur stdDeviation="3.33333"/>
			<feComposite in2="hardAlpha" operator="out" k2="-1" k3="1"/>
			<feColorMatrix type="matrix" values="0 0 0 0 0.41569 0 0 0 0 0.38824 0 0 0 0 0.46275 0 0 0 0.1 0"/>
			<feBlend mode="normal" in2="BackgroundImageFix" result="effect_dropShadow_1"/>
			<feBlend mode="normal" in="SourceGraphic" in2="effect_dropShadow_1" result="shape"/>
		</filter>
		<clipPath id="clip26_2499">
			<rect id="Verification_block" rx="5.941679" width="185.483337" height="80.483330" transform="translate(10.258334 6.258334)" fill="white" fill-opacity="0"/>
		</clipPath>
	</defs>
	<g filter="url(#filter_26_2499_dd)">
		<rect id="Verification_block" rx="5.941679" width="185.483337" height="80.483330" transform="translate(10.258334 6.258334)" fill="#FFFFFF" fill-opacity="1.000000"/>
		<g clip-path="url(#clip26_2499)">
			<path id="Прогресс" d="M23.52 24L23.52 35.52L24.94 35.52L24.94 25.35L31.08 25.35L31.08 35.52L32.51 35.52L32.51 24L23.52 24ZM36.67 35.16C37.22 35.56 37.91 35.76 38.72 35.76C39.52 35.76 40.21 35.56 40.79 35.16C41.37 34.76 41.82 34.21 42.13 33.52C42.44 32.83 42.59 32.06 42.59 31.19Q42.59 29.9 42.13 28.87C41.82 28.18 41.37 27.64 40.79 27.24Q40.66 27.15 40.53 27.08Q39.75 26.64 38.73 26.64Q37.6 26.64 36.79 27.15Q36.73 27.19 36.67 27.23C36.43 27.41 36.21 27.61 36.01 27.84L36.01 26.88L34.74 26.88L34.74 39.36L36.17 39.36L36.17 34.72Q36.25 34.8 36.32 34.87Q36.49 35.03 36.67 35.16ZM36.01 31.19Q36.01 32.14 36.28 32.88C36.46 33.37 36.74 33.76 37.11 34.04Q37.67 34.46 38.54 34.46C39.11 34.46 39.58 34.31 39.96 34.03C40.33 33.74 40.61 33.35 40.8 32.86C40.98 32.36 41.08 31.81 41.08 31.19C41.08 30.59 40.98 30.04 40.8 29.55C40.62 29.05 40.33 28.67 39.95 28.38C39.57 28.09 39.09 27.95 38.5 27.95C37.94 27.95 37.48 28.08 37.11 28.36Q37.05 28.41 36.99 28.46Q36.53 28.85 36.29 29.51C36.1 29.99 36.01 30.55 36.01 31.19ZM45.8 35.18C46.42 35.57 47.16 35.76 48.02 35.76Q49.31 35.76 50.24 35.19Q50.24 35.19 50.25 35.19C50.87 34.8 51.35 34.26 51.69 33.58C52.02 32.89 52.19 32.09 52.19 31.19C52.19 30.3 52.02 29.52 51.69 28.83C51.36 28.15 50.88 27.61 50.26 27.23C49.63 26.84 48.89 26.64 48.02 26.64C47.18 26.64 46.45 26.83 45.82 27.22C45.2 27.6 44.72 28.13 44.38 28.81C44.03 29.49 43.86 30.29 43.86 31.19Q43.86 32.53 44.37 33.56Q44.7 34.24 45.21 34.72Q45.48 34.98 45.8 35.18ZM63.39 35.16C63.94 35.56 64.63 35.76 65.44 35.76C66.24 35.76 66.93 35.56 67.51 35.16C68.09 34.76 68.54 34.21 68.84 33.52C69.15 32.83 69.31 32.06 69.31 31.19C69.31 30.33 69.15 29.55 68.84 28.87C68.54 28.18 68.09 27.64 67.51 27.24Q67.38 27.15 67.25 27.08Q66.47 26.64 65.44 26.64Q64.31 26.64 63.51 27.15Q63.45 27.19 63.39 27.23C63.14 27.41 62.93 27.61 62.73 27.84L62.73 26.88L61.46 26.88L61.46 39.36L62.89 39.36L62.89 34.72Q62.96 34.8 63.04 34.87Q63.2 35.03 63.39 35.16ZM62.73 31.19C62.73 31.82 62.82 32.39 63 32.88C63.18 33.37 63.46 33.76 63.83 34.04Q64.39 34.46 65.26 34.46C65.83 34.46 66.3 34.31 66.68 34.03C67.05 33.74 67.33 33.35 67.52 32.86Q67.8 32.11 67.8 31.19C67.8 30.59 67.7 30.04 67.52 29.55C67.34 29.05 67.05 28.67 66.67 28.38Q66.65 28.36 66.63 28.35Q66.07 27.95 65.22 27.95C64.66 27.95 64.2 28.08 63.83 28.36C63.46 28.63 63.19 29.01 63 29.51C62.82 29.99 62.73 30.55 62.73 31.19ZM72.62 35.23Q73.56 35.76 74.81 35.76C75.64 35.76 76.4 35.55 77.07 35.14C77.75 34.72 78.25 34.12 78.59 33.36L77.22 32.89Q76.93 33.48 76.46 33.85Q76.35 33.94 76.23 34.02C75.81 34.28 75.31 34.41 74.74 34.41C73.89 34.41 73.24 34.13 72.78 33.57C72.39 33.09 72.16 32.43 72.11 31.6L78.73 31.6C78.78 30.58 78.64 29.69 78.33 28.95C78.03 28.21 77.57 27.64 76.96 27.24Q76.95 27.24 76.95 27.24Q76.04 26.64 74.74 26.64C73.9 26.64 73.17 26.83 72.55 27.21C71.93 27.58 71.45 28.12 71.1 28.81C70.76 29.5 70.58 30.31 70.58 31.26C70.58 32.16 70.76 32.95 71.11 33.63C71.46 34.3 71.95 34.82 72.58 35.2Q72.6 35.21 72.62 35.23ZM77.26 30.46Q77.14 29.33 76.65 28.71Q76.49 28.52 76.3 28.37Q75.72 27.92 74.79 27.92C73.91 27.92 73.24 28.2 72.78 28.77C72.44 29.19 72.22 29.76 72.14 30.46L77.26 30.46ZM81.92 35.18C82.54 35.57 83.28 35.76 84.16 35.76C85.05 35.76 85.82 35.55 86.45 35.12C87.09 34.69 87.55 34.08 87.85 33.27L86.41 32.9C86.22 33.39 85.94 33.76 85.56 34.03C85.19 34.28 84.72 34.41 84.16 34.41C83.3 34.41 82.65 34.12 82.21 33.53C81.78 32.94 81.56 32.16 81.55 31.2C81.55 30.58 81.65 30.03 81.84 29.55C82.02 29.06 82.31 28.68 82.69 28.41C83.08 28.13 83.56 27.99 84.16 27.99C84.68 27.99 85.15 28.13 85.56 28.41C85.97 28.69 86.26 29.08 86.44 29.58L87.85 29.15C87.63 28.37 87.18 27.76 86.52 27.31C85.87 26.87 85.08 26.64 84.17 26.64Q82.88 26.64 81.96 27.22C81.34 27.6 80.87 28.14 80.54 28.83C80.21 29.51 80.05 30.3 80.04 31.2C80.05 32.08 80.21 32.87 80.53 33.55C80.85 34.24 81.32 34.78 81.92 35.18ZM90.66 35.18C91.27 35.57 92.02 35.76 92.89 35.76C93.79 35.76 94.55 35.55 95.19 35.12C95.82 34.69 96.29 34.08 96.59 33.27L95.15 32.9C94.95 33.39 94.67 33.76 94.3 34.03C93.92 34.28 93.46 34.41 92.89 34.41C92.03 34.41 91.38 34.12 90.95 33.53C90.51 32.94 90.29 32.16 90.28 31.2Q90.29 30.27 90.57 29.55C90.76 29.06 91.04 28.68 91.43 28.41C91.81 28.13 92.3 27.99 92.89 27.99Q93.45 27.99 93.91 28.2Q94.11 28.29 94.29 28.41C94.7 28.69 95 29.08 95.18 29.58L96.59 29.15C96.36 28.37 95.92 27.76 95.26 27.31C94.6 26.87 93.82 26.64 92.91 26.64C92.04 26.64 91.3 26.83 90.69 27.22C90.08 27.6 89.6 28.14 89.27 28.83Q88.79 29.85 88.77 31.2C88.78 32.08 88.95 32.87 89.27 33.55C89.59 34.24 90.05 34.78 90.66 35.18ZM53.95 26.88L53.95 35.52L55.38 35.52L55.38 28.23L59.95 28.23L59.95 26.88L53.95 26.88ZM50.02 33.51C49.59 34.11 48.92 34.41 48.02 34.41Q47.11 34.41 46.5 33.98Q46.25 33.79 46.05 33.53C45.6 32.94 45.38 32.16 45.38 31.19Q45.38 30.25 45.66 29.53Q45.88 28.99 46.27 28.62Q46.39 28.5 46.54 28.4C46.92 28.13 47.42 27.99 48.02 27.99C48.91 27.99 49.57 28.28 50.02 28.87C50.46 29.44 50.68 30.22 50.68 31.19Q50.68 32.62 50.02 33.51Z" fill="#303030" fill-opacity="1.000000" fill-rule="evenodd"/>
			<path id="Пройдено 3 из 3 вопрос изучен!" d="M43.76 55.01C43.97 55.13 44.19 55.19 44.44 55.19C44.69 55.19 44.92 55.13 45.13 55.01C45.34 54.89 45.5 54.72 45.62 54.52Q45.68 54.42 45.72 54.31Q45.81 54.09 45.81 53.83L45.09 53.83C45.09 54.01 45.03 54.16 44.9 54.28C44.78 54.41 44.62 54.47 44.44 54.47Q44.32 54.47 44.21 54.43Q44.09 54.38 43.99 54.28C43.86 54.16 43.8 54.01 43.8 53.83L43.08 53.83Q43.08 54.09 43.16 54.31Q43.2 54.42 43.26 54.52C43.39 54.72 43.55 54.89 43.76 55.01ZM23.1 54.02L23.1 61.22L23.99 61.22L23.99 54.87L27.83 54.87L27.83 61.22L28.72 61.22L28.72 54.02L23.1 54.02ZM74.95 61.17C75.26 61.3 75.59 61.36 75.95 61.36C76.4 61.36 76.8 61.26 77.15 61.06C77.5 60.86 77.78 60.58 77.99 60.23C78.2 59.88 78.3 59.47 78.3 59.01C78.3 58.55 78.2 58.15 78 57.79C77.8 57.44 77.53 57.17 77.17 56.98C76.9 56.84 76.6 56.76 76.26 56.74L78.2 54.88L78.2 54.02L73.96 54.02L73.96 54.87L77.1 54.87L74.76 56.99L75.19 57.69C75.3 57.63 75.42 57.59 75.55 57.55C75.69 57.52 75.81 57.5 75.93 57.5C76.37 57.5 76.72 57.64 76.98 57.92C77.25 58.2 77.38 58.56 77.38 59.01C77.38 59.3 77.32 59.56 77.2 59.78C77.09 60.01 76.92 60.18 76.7 60.31Q76.38 60.5 75.94 60.51C75.62 60.52 75.34 60.43 75.08 60.26C74.82 60.09 74.64 59.83 74.53 59.5L73.67 59.74C73.78 60.08 73.94 60.37 74.16 60.61C74.38 60.85 74.65 61.04 74.95 61.17ZM95.51 61.17C95.82 61.3 96.15 61.36 96.51 61.36C96.95 61.36 97.35 61.26 97.71 61.06C98.06 60.86 98.34 60.58 98.55 60.23C98.75 59.88 98.86 59.47 98.86 59.01C98.86 58.55 98.76 58.15 98.56 57.79C98.36 57.44 98.08 57.17 97.73 56.98C97.46 56.84 97.16 56.76 96.82 56.74L98.76 54.88L98.76 54.02L94.52 54.02L94.52 54.87L97.65 54.87L95.32 56.99L95.75 57.69Q95.92 57.6 96.11 57.55C96.24 57.52 96.37 57.5 96.49 57.5C96.92 57.5 97.27 57.64 97.54 57.92C97.81 58.2 97.94 58.56 97.94 59.01C97.94 59.3 97.88 59.56 97.76 59.78C97.64 60.01 97.48 60.18 97.26 60.31Q96.94 60.5 96.5 60.51C96.18 60.52 95.89 60.43 95.64 60.26C95.38 60.09 95.2 59.83 95.09 59.5L94.23 59.74C94.33 60.08 94.5 60.37 94.72 60.61C94.94 60.85 95.2 61.04 95.51 61.17ZM173.31 54.02L173.31 59.42L174.2 59.42L174.2 54.02L173.31 54.02ZM31.4 61.06Q31.9 61.37 32.6 61.37Q33.25 61.37 33.75 61.09Q33.82 61.05 33.89 61C34.25 60.75 34.53 60.4 34.73 59.97C34.92 59.54 35.02 59.06 35.02 58.52Q35.02 57.71 34.73 57.06C34.53 56.63 34.25 56.3 33.89 56.05C33.53 55.8 33.1 55.67 32.6 55.67Q31.9 55.67 31.39 55.99Q31.35 56.02 31.32 56.04C31.16 56.15 31.03 56.28 30.91 56.42L30.91 55.82L30.11 55.82L30.11 63.62L31.01 63.62L31.01 60.73C31.1 60.83 31.2 60.92 31.32 61Q31.36 61.03 31.4 61.06ZM30.91 58.52C30.91 58.91 30.96 59.26 31.07 59.57C31.19 59.88 31.36 60.12 31.59 60.3C31.83 60.47 32.12 60.56 32.49 60.56Q32.98 60.56 33.32 60.33Q33.34 60.31 33.37 60.29C33.61 60.11 33.78 59.87 33.9 59.56Q34.07 59.09 34.07 58.52C34.07 58.14 34.01 57.8 33.9 57.49C33.78 57.18 33.61 56.94 33.37 56.76Q33.35 56.75 33.34 56.74Q32.99 56.49 32.46 56.49Q31.97 56.49 31.63 56.72Q31.61 56.73 31.59 56.75C31.36 56.92 31.19 57.16 31.08 57.46Q30.91 57.92 30.91 58.52ZM37.02 61.01C37.41 61.25 37.88 61.37 38.41 61.37Q39.21 61.37 39.8 61.02Q39.8 61.02 39.8 61.01C40.19 60.77 40.49 60.44 40.7 60.01C40.91 59.58 41.02 59.08 41.02 58.52Q41.02 57.68 40.7 57.04C40.5 56.61 40.2 56.28 39.81 56.04C39.42 55.8 38.95 55.67 38.41 55.67Q37.67 55.67 37.1 55.99Q37.07 56.01 37.04 56.03Q36.83 56.16 36.66 56.32Q36.34 56.62 36.13 57.03C35.92 57.46 35.81 57.95 35.81 58.52Q35.81 59.35 36.13 60C36.34 60.43 36.64 60.77 37.02 61.01ZM54.99 61.02C55.39 61.26 55.85 61.37 56.38 61.37C56.91 61.37 57.38 61.24 57.8 60.98C58.22 60.72 58.54 60.35 58.75 59.87L57.89 59.58C57.74 59.89 57.54 60.12 57.27 60.28C57.01 60.45 56.7 60.53 56.34 60.53Q55.78 60.53 55.4 60.26Q55.24 60.16 55.12 60C54.87 59.7 54.73 59.29 54.7 58.77L58.84 58.77C58.86 58.13 58.78 57.58 58.59 57.12C58.4 56.66 58.11 56.3 57.73 56.05C57.35 55.8 56.89 55.67 56.34 55.67C55.82 55.67 55.36 55.79 54.97 56.03C54.59 56.26 54.28 56.6 54.07 57.03Q53.74 57.67 53.74 58.56Q53.74 59.4 54.07 60.04Q54.27 60.42 54.57 60.71Q54.76 60.89 54.99 61.02ZM57.91 58.06C57.87 57.59 57.74 57.23 57.53 56.97C57.27 56.64 56.89 56.47 56.37 56.47C55.82 56.47 55.4 56.65 55.12 57Q54.79 57.4 54.71 58.06L57.91 58.06ZM66.88 61.01C67.27 61.25 67.73 61.37 68.27 61.37Q69.07 61.37 69.65 61.02L69.66 61.01C70.05 60.77 70.35 60.44 70.56 60.01C70.77 59.58 70.87 59.08 70.87 58.52Q70.87 57.68 70.56 57.04C70.35 56.61 70.05 56.28 69.66 56.04C69.27 55.8 68.81 55.67 68.27 55.67C67.74 55.67 67.28 55.79 66.89 56.03Q66.68 56.16 66.51 56.32Q66.19 56.62 65.99 57.03Q65.67 57.67 65.67 58.52Q65.67 59.35 65.98 60C66.19 60.43 66.49 60.77 66.88 61.01ZM87.94 61.03C88.35 61.26 88.82 61.37 89.36 61.37Q89.94 61.37 90.41 61.17C90.72 61.04 90.97 60.84 91.15 60.59C91.34 60.34 91.43 60.04 91.43 59.68C91.43 59.47 91.4 59.27 91.33 59.08C91.26 58.89 91.15 58.72 91 58.58C90.93 58.51 90.85 58.45 90.76 58.4C90.89 58.28 91 58.15 91.08 58.01Q91.11 57.96 91.14 57.9Q91.28 57.61 91.28 57.25C91.28 56.91 91.19 56.63 91.02 56.39C90.85 56.16 90.62 55.98 90.33 55.86C90.04 55.74 89.73 55.67 89.38 55.67C88.95 55.67 88.55 55.75 88.19 55.91C87.82 56.06 87.5 56.28 87.22 56.57L87.76 57.17Q88.06 56.89 88.47 56.7C88.74 56.58 89.03 56.51 89.33 56.51Q89.74 56.51 90.04 56.7Q90.05 56.7 90.06 56.71C90.26 56.84 90.37 57.04 90.37 57.32C90.37 57.59 90.26 57.79 90.04 57.9C89.82 58.01 89.53 58.07 89.18 58.07L88.63 58.07L88.63 58.8L89.19 58.8Q89.6 58.8 89.9 58.87C90.1 58.91 90.25 58.99 90.36 59.1C90.47 59.22 90.52 59.38 90.52 59.59C90.52 59.88 90.41 60.11 90.2 60.28C89.98 60.45 89.69 60.53 89.32 60.53C88.97 60.53 88.66 60.45 88.39 60.29C88.11 60.13 87.88 59.91 87.68 59.61L86.97 60.07Q87.15 60.37 87.38 60.6Q87.63 60.85 87.94 61.03ZM108.51 61.01C108.9 61.25 109.36 61.37 109.9 61.37Q110.7 61.37 111.28 61.02L111.29 61.01C111.68 60.77 111.98 60.44 112.19 60.01C112.4 59.58 112.5 59.08 112.5 58.52C112.5 57.96 112.4 57.47 112.19 57.04Q111.99 56.64 111.69 56.35Q111.51 56.17 111.29 56.04C110.9 55.8 110.44 55.67 109.9 55.67C109.37 55.67 108.91 55.79 108.52 56.03Q108.31 56.16 108.14 56.32Q107.82 56.62 107.62 57.03Q107.3 57.67 107.3 58.52C107.3 59.08 107.4 59.57 107.61 60C107.82 60.43 108.12 60.77 108.51 61.01ZM120.71 61.06Q121.2 61.37 121.9 61.37C122.41 61.37 122.84 61.25 123.2 61C123.56 60.75 123.84 60.4 124.03 59.97C124.23 59.54 124.32 59.06 124.32 58.52C124.32 57.98 124.23 57.49 124.03 57.06C123.84 56.63 123.56 56.3 123.2 56.05Q123.12 55.99 123.04 55.95Q122.55 55.67 121.91 55.67C121.4 55.67 120.97 55.8 120.62 56.04C120.47 56.15 120.33 56.28 120.21 56.42L120.21 55.82L119.42 55.82L119.42 63.62L120.31 63.62L120.31 60.73C120.41 60.83 120.51 60.92 120.62 61Q120.67 61.03 120.71 61.06ZM120.21 58.52C120.21 58.91 120.27 59.26 120.38 59.57C120.49 59.88 120.67 60.12 120.9 60.3Q121.25 60.56 121.79 60.56C122.15 60.56 122.45 60.47 122.68 60.29C122.91 60.11 123.09 59.87 123.2 59.56C123.32 59.25 123.38 58.9 123.38 58.52C123.38 58.14 123.32 57.8 123.2 57.49C123.09 57.18 122.91 56.94 122.67 56.76Q122.66 56.75 122.65 56.74Q122.3 56.49 121.77 56.49C121.42 56.49 121.13 56.58 120.9 56.75C120.67 56.92 120.5 57.16 120.38 57.46C120.27 57.77 120.21 58.12 120.21 58.52ZM126.33 61.01C126.72 61.25 127.18 61.37 127.72 61.37Q128.52 61.37 129.1 61.02L129.11 61.01C129.5 60.77 129.8 60.44 130.01 60.01C130.22 59.58 130.32 59.08 130.32 58.52C130.32 57.96 130.22 57.47 130.01 57.04Q129.82 56.64 129.51 56.35Q129.33 56.17 129.11 56.04C128.72 55.8 128.26 55.67 127.72 55.67C127.19 55.67 126.73 55.79 126.34 56.03Q126.14 56.16 125.96 56.32Q125.65 56.62 125.44 57.03Q125.12 57.67 125.12 58.52C125.12 59.08 125.22 59.57 125.43 60C125.64 60.43 125.94 60.77 126.33 61.01ZM132.31 61.01C132.69 61.25 133.15 61.37 133.7 61.37C134.26 61.37 134.74 61.24 135.14 60.97C135.53 60.71 135.82 60.32 136.01 59.82L135.11 59.58C134.99 59.89 134.81 60.13 134.58 60.29C134.35 60.45 134.05 60.53 133.7 60.53Q133.14 60.53 132.77 60.26Q132.61 60.15 132.49 59.98C132.22 59.61 132.08 59.12 132.07 58.52C132.07 58.13 132.13 57.79 132.25 57.49C132.37 57.19 132.55 56.95 132.78 56.78Q133.14 56.52 133.7 56.52C134.03 56.52 134.32 56.61 134.58 56.78C134.83 56.95 135.02 57.2 135.13 57.51L136.01 57.24C135.87 56.76 135.59 56.37 135.18 56.09C134.77 55.81 134.28 55.67 133.71 55.67C133.17 55.67 132.71 55.79 132.33 56.03C131.94 56.27 131.65 56.61 131.44 57.04C131.24 57.47 131.13 57.96 131.13 58.52Q131.14 59.35 131.44 59.99C131.64 60.42 131.92 60.76 132.31 61.01ZM145.37 61.03C145.78 61.26 146.25 61.37 146.79 61.37Q147.37 61.37 147.84 61.17C148.15 61.04 148.4 60.84 148.58 60.59C148.77 60.34 148.86 60.04 148.86 59.68C148.86 59.47 148.83 59.27 148.76 59.08C148.69 58.89 148.58 58.72 148.43 58.58C148.36 58.51 148.28 58.45 148.19 58.4C148.32 58.28 148.43 58.15 148.51 58.01Q148.55 57.96 148.57 57.9Q148.71 57.61 148.71 57.25C148.71 56.91 148.63 56.63 148.45 56.39C148.28 56.16 148.05 55.98 147.76 55.86C147.48 55.74 147.16 55.67 146.81 55.67C146.38 55.67 145.99 55.75 145.62 55.91C145.25 56.06 144.93 56.28 144.65 56.57L145.19 57.17Q145.49 56.89 145.9 56.7C146.17 56.58 146.46 56.51 146.76 56.51Q147.17 56.51 147.47 56.7Q147.48 56.7 147.49 56.71C147.7 56.84 147.8 57.04 147.8 57.32C147.8 57.59 147.69 57.79 147.47 57.9C147.25 58.01 146.96 58.07 146.61 58.07L146.06 58.07L146.06 58.8L146.62 58.8Q147.03 58.8 147.33 58.87C147.53 58.91 147.69 58.99 147.79 59.1C147.9 59.22 147.95 59.38 147.95 59.59C147.95 59.88 147.85 60.11 147.63 60.28C147.41 60.45 147.12 60.53 146.75 60.53C146.4 60.53 146.09 60.45 145.82 60.29C145.55 60.13 145.31 59.91 145.11 59.61L144.4 60.07Q144.58 60.37 144.81 60.6Q145.06 60.85 145.37 61.03ZM161.84 61.02C162.24 61.26 162.7 61.37 163.23 61.37C163.75 61.37 164.22 61.24 164.64 60.98C165.07 60.72 165.38 60.35 165.59 59.87L164.74 59.58C164.59 59.89 164.38 60.12 164.12 60.28Q164.1 60.3 164.07 60.31Q163.69 60.53 163.19 60.53C162.66 60.53 162.25 60.35 161.96 60C161.72 59.7 161.57 59.29 161.54 58.77L165.68 58.77C165.71 58.13 165.63 57.58 165.43 57.12C165.24 56.66 164.96 56.3 164.57 56.05C164.19 55.8 163.73 55.67 163.19 55.67Q162.45 55.67 161.88 55.99Q161.85 56.01 161.82 56.03C161.43 56.26 161.13 56.6 160.91 57.03Q160.59 57.67 160.59 58.56Q160.59 59.4 160.92 60.04C161.14 60.46 161.45 60.79 161.84 61.02ZM164.76 58.06C164.71 57.59 164.58 57.23 164.38 56.97C164.12 56.64 163.73 56.47 163.22 56.47Q162.6 56.47 162.21 56.77Q162.07 56.87 161.96 57C161.75 57.27 161.61 57.62 161.56 58.06L164.76 58.06ZM46.54 61.22L46.54 55.82L45.81 55.82L42.97 59.75L42.97 55.82L42.11 55.82L42.11 61.22L42.85 61.22L45.68 57.24L45.68 61.22L46.54 61.22ZM47.54 60.49L47.54 62.42L48.39 62.42L48.39 61.22L52.19 61.22L52.19 62.42L53.04 62.42L53.04 60.49L52.51 60.49L52.51 55.82L48.79 55.82C48.77 56.34 48.75 56.8 48.72 57.2C48.7 57.6 48.67 57.96 48.63 58.29C48.6 58.62 48.56 58.92 48.5 59.21Q48.38 59.89 48.19 60.19Q48.14 60.26 48.08 60.32Q47.89 60.49 47.54 60.49ZM59.95 55.82L59.95 61.22L60.84 61.22L60.84 58.94L63.68 58.94L63.68 61.22L64.57 61.22L64.57 55.82L63.68 55.82L63.68 58.1L60.84 58.1L60.84 55.82L59.95 55.82ZM86.02 61.22L86.02 55.82L85.29 55.82L82.46 59.75L82.46 55.82L81.6 55.82L81.6 61.22L82.33 61.22L85.16 57.24L85.16 61.22L86.02 61.22ZM102.15 55.82L102.15 61.22L104.71 61.22C104.86 61.22 105.01 61.22 105.17 61.21C105.32 61.2 105.47 61.17 105.6 61.13C105.91 61.04 106.15 60.88 106.33 60.64Q106.33 60.64 106.34 60.63Q106.59 60.27 106.59 59.73C106.59 59.44 106.54 59.21 106.43 59.02C106.32 58.83 106.17 58.69 105.98 58.58C105.86 58.51 105.74 58.47 105.63 58.45C105.69 58.43 105.75 58.39 105.81 58.35C105.87 58.31 105.92 58.27 105.97 58.22C106.09 58.11 106.17 57.98 106.23 57.83C106.3 57.68 106.33 57.5 106.33 57.3Q106.33 56.82 106.11 56.48Q106.08 56.44 106.04 56.4C105.86 56.16 105.62 56 105.33 55.92C105.2 55.89 105.05 55.86 104.89 55.85C104.74 55.83 104.59 55.82 104.45 55.82L102.15 55.82ZM113.6 55.82L113.6 61.22L114.49 61.22L114.49 56.67L117.13 56.67L117.13 61.22L118.02 61.22L118.02 55.82L113.6 55.82ZM143.45 61.22L143.45 55.82L142.72 55.82L139.89 59.75L139.89 55.82L139.03 55.82L139.03 61.22L139.76 61.22L142.59 57.24L142.59 61.22L143.45 61.22ZM151.6 61.21L150.71 63.62L151.58 63.62L154.52 55.82L153.61 55.82L152.03 60.07L150.35 55.82L149.41 55.82L151.6 61.21ZM158.59 59.28L158.59 61.22L159.49 61.22L159.49 55.82L158.59 55.82L158.59 58.45C158.44 58.56 158.26 58.65 158.04 58.72C157.82 58.79 157.58 58.82 157.32 58.82Q156.74 58.82 156.42 58.57C156.21 58.4 156.07 58.15 156 57.82C155.98 57.69 155.96 57.55 155.95 57.41C155.95 57.27 155.94 57.15 155.94 57.05L155.94 55.82L155.04 55.82L155.04 57.05C155.04 57.11 155.04 57.2 155.05 57.32C155.05 57.45 155.06 57.58 155.07 57.73C155.08 57.88 155.1 58.03 155.13 58.17C155.24 58.63 155.46 58.99 155.79 59.23C156.13 59.48 156.57 59.6 157.12 59.6Q157.56 59.6 157.94 59.51C158.19 59.45 158.41 59.37 158.59 59.28ZM166.79 55.82L166.79 61.22L167.68 61.22L167.68 58.94L170.52 58.94L170.52 61.22L171.41 61.22L171.41 55.82L170.52 55.82L170.52 58.1L167.68 58.1L167.68 55.82L166.79 55.82ZM39.66 59.97C39.39 60.34 38.97 60.53 38.41 60.53Q37.84 60.53 37.46 60.26Q37.3 60.14 37.18 59.98C36.9 59.61 36.76 59.13 36.76 58.52Q36.76 57.93 36.94 57.48C37.06 57.18 37.24 56.94 37.48 56.77C37.73 56.6 38.04 56.52 38.41 56.52C38.97 56.52 39.38 56.7 39.66 57.06C39.93 57.42 40.07 57.91 40.07 58.52C40.07 59.11 39.94 59.6 39.66 59.97ZM69.52 59.97C69.24 60.34 68.83 60.53 68.27 60.53Q67.69 60.53 67.32 60.26Q67.16 60.14 67.03 59.98Q66.61 59.43 66.61 58.52C66.61 58.13 66.67 57.78 66.79 57.48C66.91 57.18 67.09 56.94 67.34 56.77C67.58 56.6 67.89 56.52 68.27 56.52C68.82 56.52 69.23 56.7 69.51 57.06C69.79 57.42 69.93 57.91 69.93 58.52C69.93 59.11 69.79 59.6 69.52 59.97ZM111.15 59.97C110.87 60.34 110.46 60.53 109.9 60.53Q109.33 60.53 108.95 60.26Q108.79 60.14 108.66 59.98Q108.24 59.43 108.24 58.52C108.24 58.13 108.3 57.78 108.42 57.48C108.54 57.18 108.72 56.94 108.97 56.77C109.21 56.6 109.52 56.52 109.9 56.52C110.45 56.52 110.87 56.7 111.14 57.06C111.42 57.42 111.56 57.91 111.56 58.52C111.56 59.11 111.42 59.6 111.15 59.97ZM128.97 59.97C128.7 60.34 128.28 60.53 127.72 60.53Q127.15 60.53 126.77 60.26Q126.61 60.14 126.48 59.98Q126.06 59.43 126.06 58.52C126.06 58.13 126.12 57.78 126.24 57.48C126.36 57.18 126.55 56.94 126.79 56.77C127.03 56.6 127.34 56.52 127.72 56.52C128.27 56.52 128.69 56.7 128.96 57.06C129.24 57.42 129.38 57.91 129.38 58.52C129.38 59.11 129.24 59.6 128.97 59.97ZM51.62 60.49L48.91 60.49C49.03 60.37 49.12 60.22 49.18 60.05C49.24 59.88 49.29 59.66 49.33 59.41C49.37 59.23 49.4 59.03 49.42 58.8C49.45 58.57 49.48 58.33 49.5 58.07C49.52 57.82 49.54 57.56 49.56 57.3C49.58 57.04 49.59 56.8 49.6 56.56L51.62 56.56L51.62 60.49ZM104.39 58.16L103.05 58.16L103.05 56.56L104.32 56.56C104.35 56.56 104.44 56.56 104.57 56.57C104.7 56.57 104.82 56.59 104.93 56.63C105.09 56.68 105.21 56.78 105.28 56.91Q105.29 56.93 105.3 56.95Q105.4 57.13 105.4 57.36Q105.4 57.51 105.36 57.64Q105.34 57.72 105.29 57.8C105.22 57.93 105.11 58.02 104.96 58.08C104.88 58.11 104.79 58.13 104.69 58.14C104.58 58.15 104.49 58.16 104.39 58.16ZM104.66 60.5L103.05 60.5L103.05 58.89L104.58 58.89C104.65 58.89 104.72 58.9 104.8 58.9C104.88 58.9 104.96 58.91 105.03 58.93C105.22 58.97 105.38 59.05 105.49 59.18Q105.53 59.22 105.55 59.26Q105.67 59.44 105.67 59.7C105.67 59.86 105.63 60.01 105.55 60.15Q105.52 60.2 105.48 60.25Q105.37 60.37 105.18 60.43C105.1 60.45 105.01 60.47 104.91 60.48C104.82 60.49 104.73 60.5 104.66 60.5ZM173.31 60.3L173.31 61.22L174.2 61.22L174.2 60.3L173.31 60.3Z" fill="#8C8C8C" fill-opacity="1.000000" fill-rule="evenodd"/>
			<path id="01" d="M24.46 70.59L75.61 70.59L75.61 74.73L24.46 74.73C23.32 74.73 22.4 73.8 22.4 72.66C22.4 71.52 23.32 70.59 24.46 70.59Z" fill="#008616" fill-opacity="1.000000" fill-rule="evenodd"/>
			<rect id="02" x="76.391968" y="69.565186" width="53.216774" height="6.200012" fill="#008616" fill-opacity="1.000000"/>
			<rect id="03" x="130.383789" y="70.598389" width="53.216774" height="4.133341" fill="#008616" fill-opacity="1.000000"/>
		</g>
	</g>
</svg>
