<svg width="29.000000" height="28.000000" viewBox="0 0 29 28" fill="none" xmlns="http://www.w3.org/2000/svg" xmlns:xlink="http://www.w3.org/1999/xlink">
	<desc>
			Created with Pixso.
	</desc>
	<defs/>
	<path id="Fill-51" d="M14.52 0.1C6.53 0.1 0.05 6.46 0.05 14.31C0.05 20.59 4.19 25.92 9.95 27.8C10.67 27.93 10.93 27.49 10.93 27.12C10.93 26.78 10.92 25.66 10.91 24.47C6.89 25.33 6.04 22.79 6.04 22.79C5.38 21.15 4.43 20.71 4.43 20.71C3.12 19.83 4.53 19.85 4.53 19.85C5.98 19.95 6.75 21.31 6.75 21.31C8.04 23.49 10.14 22.86 10.96 22.49C11.09 21.58 11.47 20.95 11.88 20.59C8.67 20.24 5.29 19.02 5.29 13.57C5.29 12.02 5.85 10.75 6.78 9.76C6.63 9.4 6.13 7.95 6.92 5.99C6.92 5.99 8.13 5.61 10.9 7.45C12.05 7.14 13.29 6.98 14.52 6.97C15.75 6.98 16.99 7.14 18.15 7.45C20.91 5.61 22.12 5.99 22.12 5.99C22.91 7.95 22.42 9.4 22.26 9.76C23.19 10.75 23.75 12.02 23.75 13.57C23.75 19.03 20.37 20.23 17.15 20.58C17.66 21.02 18.13 21.89 18.13 23.22C18.13 25.12 18.11 26.65 18.11 27.12C18.11 27.49 18.37 27.94 19.1 27.8C24.85 25.92 28.99 20.59 28.99 14.31C28.99 6.46 22.51 0.1 14.52 0.1Z" fill="#FFFFFF" fill-opacity="1.000000" fill-rule="nonzero"/>
	<path id="Fill-52" d="M5.53 20.51C5.5 20.58 5.38 20.6 5.28 20.55C5.18 20.5 5.12 20.41 5.15 20.34C5.18 20.26 5.3 20.24 5.4 20.29C5.51 20.34 5.57 20.44 5.53 20.51Z" fill="#FFFFFF" fill-opacity="1.000000" fill-rule="nonzero"/>
	<path id="Fill-53" d="M6.12 21.15C6.05 21.21 5.91 21.18 5.82 21.08C5.73 20.98 5.71 20.85 5.78 20.79C5.85 20.72 5.98 20.75 6.07 20.85C6.17 20.95 6.19 21.08 6.12 21.15Z" fill="#FFFFFF" fill-opacity="1.000000" fill-rule="nonzero"/>
	<path id="Fill-54" d="M6.69 21.97C6.6 22.03 6.45 21.97 6.36 21.84C6.27 21.72 6.27 21.57 6.37 21.51C6.46 21.45 6.6 21.5 6.69 21.63C6.78 21.75 6.78 21.91 6.69 21.97Z" fill="#FFFFFF" fill-opacity="1.000000" fill-rule="nonzero"/>
	<path id="Fill-55" d="M7.47 22.76C7.39 22.84 7.22 22.82 7.1 22.7C6.97 22.59 6.93 22.43 7.01 22.34C7.09 22.25 7.26 22.28 7.39 22.39C7.51 22.51 7.55 22.67 7.47 22.76Z" fill="#FFFFFF" fill-opacity="1.000000" fill-rule="nonzero"/>
	<path id="Fill-56" d="M8.55 23.22C8.51 23.33 8.35 23.38 8.19 23.33C8.02 23.28 7.91 23.15 7.95 23.04C7.98 22.93 8.14 22.88 8.31 22.93C8.47 22.97 8.58 23.1 8.55 23.22Z" fill="#FFFFFF" fill-opacity="1.000000" fill-rule="nonzero"/>
	<path id="Fill-57" d="M9.73 23.3C9.74 23.42 9.6 23.52 9.42 23.52C9.25 23.52 9.11 23.43 9.11 23.31C9.11 23.19 9.25 23.1 9.42 23.09C9.59 23.09 9.73 23.19 9.73 23.3Z" fill="#FFFFFF" fill-opacity="1.000000" fill-rule="nonzero"/>
	<path id="Fill-58" d="M10.83 23.12C10.85 23.23 10.73 23.35 10.56 23.38C10.4 23.41 10.24 23.34 10.22 23.23C10.2 23.11 10.32 22.99 10.49 22.96C10.66 22.93 10.81 23 10.83 23.12Z" fill="#FFFFFF" fill-opacity="1.000000" fill-rule="nonzero"/>
</svg>
