<svg width="29.000000" height="28.000000" viewBox="0 0 29 28" fill="none" xmlns="http://www.w3.org/2000/svg" xmlns:xlink="http://www.w3.org/1999/xlink">
	<desc>
			Created with Pixso.
	</desc>
	<defs/>
	<path id="Combined-Shape" d="M14.5 0C6.49187 0 0 6.26801 0 14C0 21.732 6.49187 28 14.5 28C22.5081 28 29 21.732 29 14C29 6.26801 22.5081 0 14.5 0ZM14.4983 6.53333L14.5007 6.53333C16.5994 6.53333 16.8622 6.54224 17.6867 6.57843C18.51 6.61487 19.0723 6.74066 19.5653 6.92535C20.0744 7.11591 20.5046 7.37103 20.9348 7.78638C21.3649 8.20135 21.6292 8.61798 21.8273 9.10907C22.0175 9.5838 22.1479 10.1264 22.1866 10.9213C22.2237 11.7178 22.2333 11.9722 22.2333 14.0001C22.2333 16.0279 22.2237 16.2818 22.1866 17.0782C22.1479 17.8728 22.0175 18.4156 21.8273 18.8905C21.6292 19.3814 21.3649 19.798 20.9348 20.213C20.5051 20.6284 20.0742 20.8841 19.5658 21.0748C19.0737 21.2595 18.5111 21.3853 17.6879 21.4217C16.863 21.4579 16.6002 21.4668 14.4998 21.4668C12.3997 21.4668 12.1362 21.4579 11.3113 21.4217C10.4882 21.3853 9.92609 21.2595 9.43405 21.0748C8.92574 20.8841 8.49428 20.6284 8.06459 20.213C7.63458 19.798 7.37036 19.3814 7.17267 18.8903C6.9816 18.4156 6.85126 17.873 6.81339 17.0781C6.77602 16.2816 6.76666 16.0279 6.76666 14.0001C6.76666 11.9722 6.77634 11.7176 6.81323 10.9211C6.85028 10.1265 6.98079 9.5838 7.17252 9.10889C7.37068 8.61798 7.6349 8.20135 8.06508 7.78638C8.49492 7.37115 8.92638 7.11603 9.43501 6.92535C9.92673 6.74066 10.4887 6.61487 11.312 6.57843C12.1366 6.54224 12.4003 6.53333 14.4983 6.53333Z" clip-rule="evenodd" fill="#FFFFFF" fill-opacity="1.000000" fill-rule="evenodd"/>
	<path id="Combined-Shape" d="M14.243 7.87872C14.0866 7.87866 13.9417 7.8786 13.807 7.87885L13.807 7.87695C12.3657 7.87848 12.0892 7.88782 11.3758 7.91895C10.6218 7.95239 10.2124 8.07373 9.93977 8.17639C9.57889 8.31207 9.32111 8.47382 9.05045 8.73517C8.77977 8.99652 8.61189 9.24536 8.47173 9.59381C8.36588 9.85706 8.23988 10.2521 8.2054 10.9802C8.16835 11.7673 8.16093 12.0025 8.16093 13.9964C8.16093 15.9904 8.16835 16.2268 8.2054 17.0139C8.23972 17.7419 8.36588 18.137 8.47173 18.3999C8.61221 18.7485 8.77977 18.9968 9.05045 19.2581C9.32111 19.5195 9.57889 19.6813 9.93977 19.8166C10.2125 19.9188 10.6218 20.0404 11.3758 20.074C12.191 20.1098 12.4357 20.1176 14.5007 20.1176C16.5656 20.1176 16.8104 20.1098 17.6257 20.074C18.3797 20.0408 18.7892 19.9194 19.0615 19.8168C19.4226 19.6814 19.6795 19.5197 19.9502 19.2583C20.2209 18.9971 20.3888 18.749 20.5289 18.4006C20.6348 18.1376 20.7608 17.7426 20.7952 17.0145C20.8323 16.2274 20.8404 15.991 20.8404 13.9983C20.8404 12.0056 20.8323 11.7692 20.7952 10.9821C20.7609 10.254 20.6348 9.85889 20.5289 9.59601C20.3884 9.24756 20.2209 8.99866 19.9502 8.73737C19.6797 8.47601 19.4224 8.31421 19.0615 8.17889C18.7889 8.07666 18.3797 7.95502 17.6257 7.92175C16.8103 7.88599 16.5656 7.87885 14.5007 7.87885C14.4115 7.87885 14.3256 7.87878 14.243 7.87872ZM18.628 9.11945C18.1157 9.11945 17.7 9.52032 17.7 10.0151C17.7 10.5098 18.1157 10.9111 18.628 10.9111C19.1404 10.9111 19.556 10.5098 19.556 10.0151C19.556 9.52051 19.1404 9.11914 18.628 9.11914L18.628 9.11945ZM10.5301 14.0005C10.5301 11.8829 12.3082 10.1661 14.5013 10.166C16.6946 10.166 18.4723 11.8829 18.4723 14.0005C18.4723 16.1181 16.6947 17.8342 14.5015 17.8342C12.3083 17.8342 10.5301 16.1181 10.5301 14.0005Z" clip-rule="evenodd" fill="#FFFFFF" fill-opacity="1.000000" fill-rule="evenodd"/>
	<path id="Shape" d="M14.5 11.51C15.92 11.51 17.07 12.62 17.07 14C17.07 15.37 15.92 16.48 14.5 16.48C13.07 16.48 11.92 15.37 11.92 14C11.92 12.62 13.07 11.51 14.5 11.51Z" fill="#FFFFFF" fill-opacity="1.000000" fill-rule="nonzero"/>
</svg>
