<svg width="28.000000" height="28.000000" viewBox="0 0 28 28" fill="none" xmlns="http://www.w3.org/2000/svg" xmlns:xlink="http://www.w3.org/1999/xlink">
	<desc>
			Created with Pixso.
	</desc>
	<defs/>
	<path id="Combined-Shape" d="M0 14C0 21.732 6.26801 28 14 28C21.732 28 28 21.732 28 14C28 6.26801 21.732 0 14 0C6.26801 0 0 6.26801 0 14ZM11.6715 16.848L11.4333 20.4167C11.7833 20.4167 11.938 20.2566 12.1333 20.0667L13.8149 18.4315L17.3133 21.0162C17.9572 21.3715 18.4218 21.1875 18.5822 20.4185L20.8788 9.59613C21.1139 8.65344 20.5194 8.22589 19.9035 8.50549L6.41803 13.7054C5.4975 14.0746 5.50287 14.5882 6.25024 14.8171L9.71091 15.8972L17.7228 10.8426C18.101 10.6132 18.4481 10.7366 18.1632 10.9894L11.6713 16.8478L11.6715 16.848Z" clip-rule="evenodd" fill="#FFFFFF" fill-opacity="1.000000" fill-rule="evenodd"/>
</svg>
