<svg width="29" height="28" viewBox="0 0 29 28" fill="none" xmlns="http://www.w3.org/2000/svg">
<g id="Github">
<path id="Fill-51" d="M14.5261 0.10498C6.53386 0.10498 0.0529633 6.46792 0.0529633 14.3176C0.0529633 20.5973 4.19996 25.9249 9.95059 27.8042C10.6739 27.9358 10.9395 27.4959 10.9395 27.1205C10.9395 26.7816 10.926 25.662 10.9198 24.4743C6.89337 25.3341 6.04374 22.7974 6.04374 22.7974C5.38537 21.1546 4.43676 20.7178 4.43676 20.7178C3.12361 19.8356 4.53574 19.8538 4.53574 19.8538C5.9891 19.9538 6.75436 21.3184 6.75436 21.3184C8.04522 23.4912 10.1402 22.8631 10.9661 22.4999C11.096 21.5815 11.4711 20.9541 11.885 20.5994C8.67028 20.24 5.29094 19.0213 5.29094 13.5753C5.29094 12.0236 5.85632 10.7557 6.78216 9.76037C6.63189 9.40215 6.13649 7.95681 6.92237 5.99909C6.92237 5.99909 8.13773 5.6171 10.9035 7.45596C12.058 7.14105 13.2961 6.98313 14.5261 6.97771C15.7561 6.98313 16.9952 7.14105 18.1518 7.45596C20.9143 5.6171 22.128 5.99909 22.128 5.99909C22.9157 7.95681 22.4201 9.40215 22.2698 9.76037C23.1978 10.7557 23.7594 12.0236 23.7594 13.5753C23.7594 19.0342 20.3736 20.2362 17.1507 20.5881C17.6699 21.0291 18.1324 21.8941 18.1324 23.2201C18.1324 25.1216 18.1156 26.6521 18.1156 27.1205C18.1156 27.4987 18.3762 27.9419 19.1098 27.8023C24.8573 25.9209 28.999 20.5951 28.999 14.3176C28.999 6.46792 22.5191 0.10498 14.5261 0.10498Z" fill="white"/>
<path id="Fill-52" d="M5.53467 20.5113C5.5028 20.5822 5.38967 20.6031 5.28662 20.5547C5.18164 20.5083 5.12268 20.412 5.15672 20.3412C5.18787 20.2685 5.30124 20.2484 5.40597 20.2967C5.51119 20.3433 5.5711 20.4405 5.53467 20.5113Z" fill="white"/>
<path id="Fill-53" d="M6.12091 21.1534C6.05188 21.2163 5.91695 21.1871 5.82539 21.0878C5.73073 20.9887 5.71299 20.8562 5.78297 20.7924C5.85416 20.7296 5.98501 20.759 6.07992 20.8581C6.17459 20.9583 6.19305 21.0899 6.12091 21.1534Z" fill="white"/>
<path id="Fill-54" d="M6.69157 21.972C6.60289 22.0325 6.45789 21.9758 6.36826 21.8494C6.27958 21.723 6.27958 21.5714 6.37017 21.5107C6.46005 21.45 6.60289 21.5046 6.69373 21.63C6.78217 21.7583 6.78217 21.9101 6.69157 21.972Z" fill="white"/>
<path id="Fill-55" d="M7.47336 22.7628C7.39403 22.8487 7.22506 22.8256 7.10139 22.7084C6.97485 22.5938 6.93962 22.4312 7.01919 22.3453C7.09948 22.2591 7.2694 22.2834 7.39403 22.3996C7.51962 22.514 7.55796 22.6778 7.47336 22.7628Z" fill="white"/>
<path id="Fill-56" d="M8.55188 23.222C8.51689 23.3333 8.35415 23.3839 8.19022 23.3366C8.02653 23.2879 7.91939 23.1575 7.95247 23.045C7.9865 22.933 8.14996 22.8802 8.31509 22.9308C8.47854 22.9793 8.58591 23.1088 8.55188 23.222Z" fill="white"/>
<path id="Fill-57" d="M9.73632 23.3072C9.7404 23.4244 9.60139 23.5216 9.42931 23.5235C9.25626 23.5275 9.1163 23.4326 9.11438 23.3173C9.11438 23.1989 9.25027 23.1026 9.42331 23.0998C9.5954 23.0965 9.73632 23.1907 9.73632 23.3072Z" fill="white"/>
<path id="Fill-58" d="M10.8386 23.1229C10.8592 23.2373 10.7396 23.3547 10.5687 23.3858C10.4007 23.4162 10.2452 23.3455 10.2238 23.2321C10.203 23.1149 10.3247 22.9975 10.4925 22.9671C10.6636 22.9379 10.8168 23.0066 10.8386 23.1229Z" fill="white"/>
</g>
</svg>
