<svg width="29" height="28" viewBox="0 0 29 28" fill="none" xmlns="http://www.w3.org/2000/svg">
<g id="Instagram">
<path id="Combined-Shape" fill-rule="evenodd" clip-rule="evenodd" d="M14.5 0C6.49187 0 0 6.26801 0 14C0 21.732 6.49187 28 14.5 28C22.5081 28 29 21.732 29 14C29 6.26801 22.5081 0 14.5 0ZM11.312 6.57844C12.1369 6.5422 12.4005 6.53333 14.5007 6.53333H14.4983C16.5992 6.53333 16.8618 6.5422 17.6867 6.57844C18.51 6.61485 19.0723 6.74069 19.5653 6.92534C20.0744 7.11589 20.5046 7.37101 20.9348 7.78635C21.3649 8.20137 21.6292 8.61796 21.8273 9.10905C22.0174 9.58381 22.1479 10.1264 22.1866 10.9213C22.2237 11.7177 22.2333 11.9722 22.2333 14.0001C22.2333 16.0279 22.2237 16.2818 22.1866 17.0782C22.1479 17.8728 22.0174 18.4156 21.8273 18.8905C21.6292 19.3814 21.3649 19.798 20.9348 20.213C20.5051 20.6284 20.0743 20.8841 19.5658 21.0748C19.0737 21.2595 18.5111 21.3853 17.6879 21.4217C16.863 21.458 16.6002 21.4668 14.4998 21.4668C12.3997 21.4668 12.1362 21.458 11.3113 21.4217C10.4882 21.3853 9.92609 21.2595 9.43405 21.0748C8.92574 20.8841 8.49428 20.6284 8.06459 20.213C7.63458 19.798 7.37036 19.3814 7.17267 18.8903C6.98159 18.4156 6.85125 17.873 6.81339 17.0781C6.77601 16.2816 6.76667 16.0279 6.76667 14.0001C6.76667 11.9722 6.77633 11.7176 6.81323 10.9211C6.85028 10.1265 6.98079 9.58381 7.17251 9.10889C7.37068 8.61796 7.6349 8.20137 8.06507 7.78635C8.49492 7.37116 8.92638 7.11605 9.43502 6.92534C9.92673 6.74069 10.4887 6.61485 11.312 6.57844Z" fill="white"/>
<path id="Combined-Shape_2" fill-rule="evenodd" clip-rule="evenodd" d="M13.807 7.87888C13.9417 7.87868 14.0866 7.87874 14.243 7.87881L14.5007 7.87888C16.5655 7.87888 16.8103 7.88604 17.6257 7.92181C18.3797 7.9551 18.7889 8.07675 19.0615 8.17895C19.4224 8.31429 19.6797 8.47606 19.9502 8.7374C20.2209 8.99874 20.3884 9.24763 20.5289 9.59608C20.6348 9.85897 20.7609 10.2541 20.7952 10.9821C20.8323 11.7692 20.8403 12.0057 20.8403 13.9983C20.8403 15.991 20.8323 16.2275 20.7952 17.0146C20.7608 17.7426 20.6348 18.1377 20.5289 18.4006C20.3887 18.7491 20.2209 18.9972 19.9502 19.2584C19.6795 19.5197 19.4226 19.6815 19.0615 19.8168C18.7892 19.9195 18.3797 20.0408 17.6257 20.0741C16.8104 20.1099 16.5655 20.1177 14.5007 20.1177C12.4357 20.1177 12.191 20.1099 11.3758 20.0741C10.6218 20.0405 10.2125 19.9189 9.93978 19.8167C9.57889 19.6813 9.32111 19.5195 9.05044 19.2582C8.77977 18.9969 8.61221 18.7486 8.47172 18.4C8.36587 18.1371 8.23972 17.742 8.2054 17.014C8.16835 16.2269 8.16093 15.9904 8.16093 13.9965C8.16093 12.0025 8.16835 11.7673 8.2054 10.9802C8.23988 10.2522 8.36587 9.8571 8.47172 9.5939C8.61189 9.24545 8.77977 8.99656 9.05044 8.73522C9.32111 8.47389 9.57889 8.31211 9.93978 8.17646C10.2124 8.07379 10.6218 7.95246 11.3758 7.91901C12.0892 7.8879 12.3657 7.87857 13.807 7.87701V7.87888ZM18.628 9.11951C18.1157 9.11951 17.7 9.52038 17.7 10.0152C17.7 10.5099 18.1157 10.9112 18.628 10.9112C19.1403 10.9112 19.556 10.5099 19.556 10.0152C19.556 9.52054 19.1403 9.1192 18.628 9.1192V9.11951ZM10.5301 14.0006C10.5301 11.883 12.3082 10.1662 14.5013 10.1661C16.6946 10.1661 18.4723 11.883 18.4723 14.0006C18.4723 16.1182 16.6947 17.8343 14.5015 17.8343C12.3083 17.8343 10.5301 16.1182 10.5301 14.0006Z" fill="white"/>
<path id="Shape" d="M14.5007 11.5112C15.9243 11.5112 17.0785 12.6254 17.0785 14.0001C17.0785 15.3746 15.9243 16.489 14.5007 16.489C13.077 16.489 11.9229 15.3746 11.9229 14.0001C11.9229 12.6254 13.077 11.5112 14.5007 11.5112Z" fill="white"/>
</g>
</svg>
